<svg width="152" height="35" viewBox="0 0 152 35" fill="none" xmlns="http://www.w3.org/2000/svg">
<path d="M60.9998 0H0V35H60.9998V0Z" fill="#42ABDE"/>
<path d="M68.9302 19.6306H75.3557C78.973 19.6306 81.267 21.6803 81.267 24.9009C81.267 28.1216 78.9737 30.1513 75.3956 30.1513H73.7155V33.2936H68.9309L68.9302 19.6306ZM74.7233 26.4621C75.8493 26.4621 76.4824 25.8923 76.4824 24.9394C76.4824 23.9865 75.8493 23.4174 74.7233 23.4174H73.6158V26.4621H74.7233Z" fill="#42ABDE"/>
<path d="M80.9082 19.6306H87.7454C91.2452 19.6306 93.4003 21.5436 93.4003 24.6467C93.4003 26.4621 92.6682 27.8673 91.3634 28.7262L93.6767 33.2929H88.4184L86.7804 29.6606H85.6536V33.2929H80.9082V19.6306ZM86.9812 26.1886C88.0296 26.1886 88.6193 25.6616 88.6193 24.725C88.6193 23.7685 88.0267 23.2614 86.9812 23.2614H85.5782V26.1886H86.9812Z" fill="#42ABDE"/>
<path d="M92.6494 26.462C92.6494 22.2849 95.7732 19.34 100.3 19.34C104.847 19.34 107.971 22.2871 107.971 26.462C107.971 30.637 104.847 33.5841 100.3 33.5841C95.7732 33.5855 92.6494 30.6391 92.6494 26.462ZM100.299 29.2916C101.96 29.2916 103.148 28.1407 103.148 26.462C103.148 24.7834 101.962 23.6317 100.299 23.6317C98.6369 23.6317 97.4725 24.7834 97.4725 26.462C97.4725 28.1407 98.6398 29.2916 100.299 29.2916Z" fill="#42ABDE"/>
<path d="M106.584 28.999H108.62C109.826 28.999 110.359 28.5111 110.359 27.2427V19.6306H115.144V27.8865C115.144 31.3998 113.007 33.2929 109.293 33.2929H106.586L106.584 28.999Z" fill="#42ABDE"/>
<path d="M115.599 19.6306H125.563V23.124H120.242V24.7051H125.046V28.1016H120.242V29.7397H125.757V33.2915H115.599V19.6306Z" fill="#42ABDE"/>
<path d="M124.968 26.462C124.968 22.2465 127.953 19.34 132.263 19.34C136.237 19.34 139.064 21.624 139.697 25.3318H135.011C134.655 24.2976 133.667 23.6339 132.481 23.6339C130.879 23.6339 129.792 24.7663 129.792 26.4642C129.792 28.1428 130.879 29.2938 132.441 29.2938C133.687 29.2938 134.655 28.6108 135.05 27.5375H139.756C139.262 31.2068 136.296 33.5912 132.303 33.5912C127.914 33.5855 124.968 30.6968 124.968 26.462Z" fill="#42ABDE"/>
<path d="M142.285 23.9052H138.271V19.632H151.08V23.9052H147.067V33.2928H142.285V23.9052Z" fill="#42ABDE"/>
<path d="M8.60109 13.8175H2.86426V7.70679H21.1772V13.8175H15.4404V27.2391H8.60322L8.60109 13.8175Z" fill="white"/>
<path d="M32.3677 20.3741H27.7327V27.2383H20.8955V7.70605H27.7327V14.2356H32.3677V7.70605H39.2049V27.2383H32.3677V20.3741Z" fill="white"/>
<path d="M39.9116 7.70605H49.0955C54.2676 7.70605 57.5459 10.6361 57.5459 15.2398C57.5459 19.8435 54.2697 22.7457 49.1525 22.7457H46.7502V27.2383H39.913L39.9116 7.70605ZM48.1917 17.4726C49.8028 17.4726 50.7066 16.6628 50.7066 15.2953C50.7066 13.9279 49.8028 13.1195 48.1917 13.1195H46.6092V17.4726H48.1917Z" fill="white"/>
<path d="M72.4109 4.84372H68.498V3.91785H77.3138V4.84372H73.3845V15.1308H72.4109V4.84372Z" fill="#231F20"/>
<path d="M85.77 9.87689H79.1137V15.1323H78.123V3.91785H79.1137V8.94959H85.77V3.91785H86.76V15.1344H85.77V9.87689Z" fill="#231F20"/>
<path d="M88.7871 3.91785H95.4755V4.83089H89.7778V8.96169H95.0538V9.85908H89.7778V14.2178H95.6549V15.1308H88.7878L88.7871 3.91785Z" fill="#231F20"/>
<path d="M107.39 9.87689H100.734V15.1323H99.7432V3.91785H100.734V8.94959H107.39V3.91785H108.38V15.1344H107.39V9.87689Z" fill="#231F20"/>
<path d="M110.405 3.91785H117.094V4.83089H111.397V8.96169H116.673V9.85908H111.397V14.2178H117.273V15.1308H110.406L110.405 3.91785Z" fill="#231F20"/>
<path d="M121.882 3.91785H122.824L127.532 15.1344H126.493L125.308 12.3141H119.397L118.227 15.1344H117.178L121.882 3.91785ZM124.934 11.4167L122.353 5.24754L119.789 11.4167H124.934Z" fill="#231F20"/>
<path d="M128.099 3.91785H129.089V14.205H134.852V15.1308H128.099V3.91785Z" fill="#231F20"/>
<path d="M136.345 4.84372H132.433V3.91785H141.252V4.84372H137.323V15.1308H136.349L136.345 4.84372Z" fill="#231F20"/>
<path d="M149.705 9.87689H143.048V15.1323H142.058V3.91785H143.048V8.94959H149.705V3.91785H150.695V15.1344H149.705V9.87689Z" fill="#231F20"/>
<path d="M148.203 31.6989C148.203 30.7859 148.87 30.1406 149.841 30.1406C150.813 30.1406 151.474 30.7859 151.474 31.6989C151.474 32.612 150.806 33.2508 149.841 33.2508C148.876 33.2508 148.203 32.6056 148.203 31.6989ZM149.841 32.9446C150.625 32.9446 151.143 32.446 151.143 31.6989C151.143 30.9518 150.625 30.4469 149.841 30.4469C149.057 30.4469 148.533 30.9454 148.533 31.6989C148.533 32.4525 149.051 32.9446 149.841 32.9446ZM149.317 30.9006H149.9C150.217 30.9006 150.437 31.0985 150.437 31.3991C150.442 31.4992 150.414 31.598 150.356 31.68C150.299 31.7621 150.215 31.8226 150.12 31.8521L150.496 32.4589H150.217L149.861 31.8969H149.557V32.4589H149.318L149.317 30.9006ZM149.88 31.6669C150.055 31.6669 150.184 31.565 150.184 31.3991C150.184 31.2332 150.055 31.1306 149.88 31.1306H149.556V31.6669H149.88Z" fill="#231F20"/>
</svg>
